<?xml version="1.0" encoding="UTF-8"?>
<svg width="800px" height="260px" viewBox="0 0 800 260" version="1.1" xmlns="http://www.w3.org/2000/svg" xmlns:xlink="http://www.w3.org/1999/xlink">
    <!-- Generator: Sketch 53.2 (72643) - https://sketchapp.com -->
    <title>logo</title>
    <desc>Created with Sketch.</desc>
    <g id="Page-1" stroke="none" stroke-width="1" fill="none" fill-rule="evenodd">
        <path d="M77.4657906,151.009702 C100.300883,151.009702 114.095262,132.917658 114.095262,109.777176 C114.095262,86.6294714 100.300883,68.5374279 77.4657906,68.5374279 C54.6525709,68.5374279 39.3343944,86.6294714 39.3343944,109.777176 C39.3343944,132.917658 54.6525709,151.009702 77.4657906,151.009702 Z M76.2627924,185.43153 C35.4191822,185.43153 2.84217094e-14,156.664819 2.84217094e-14,110.080516 C2.84217094e-14,62.6078599 37.2127431,34.1155996 77.4657906,34.1155996 C118.003183,34.1155996 153.451529,62.8895324 153.451529,109.495503 C153.451529,156.664819 116.800185,185.43153 76.2627924,185.43153 Z M266.698326,34.1155996 L276.001512,34.1155996 L276.001512,72.0980576 C273.012243,71.5130454 267.901324,70.9135885 262.790404,70.9135885 C241.770746,70.9135885 219.854307,81.6099224 219.854307,108.888824 L219.854307,183.965388 L179.907477,183.965388 L179.907477,35.6034084 L210.529248,35.6034084 L215.946385,51.9331931 L220.751087,51.9331931 C227.363931,45.3969458 242.076963,34.1155996 266.698326,34.1155996 Z M302.45673,183.964666 L302.45673,35.6026862 L340.894344,35.6026862 L340.894344,183.964666 L302.45673,183.964666 Z M573.678134,183.964666 L573.678134,35.6026862 L612.115747,35.6026862 L612.115747,183.964666 L573.678134,183.964666 Z M742.35087,34.1155996 C781.08012,34.1155996 800,62.6078599 800,103.544268 L800,183.965388 L760.05317,183.965388 L760.05317,112.449454 C760.05317,107.401015 763.654874,70.0252366 734.841245,68.5374279 C720.718776,67.6562984 695.506851,75.3481253 695.506851,114.218935 L695.506851,183.965388 L655.866239,183.965388 L655.866239,35.6034084 L686.48801,35.6034084 L691.598929,53.7171191 L696.709849,53.7171191 C702.994603,46.2997424 717.117072,34.1155996 742.35087,34.1155996 Z M454.535383,147.7553 C477.348603,147.7553 491.164854,129.663257 491.164854,106.522775 C491.164854,83.3750703 477.348603,65.2830267 454.535383,65.2830267 C431.707582,65.2830267 416.403987,83.3750703 416.403987,106.522775 C416.403987,129.663257 431.707582,147.7553 454.535383,147.7553 Z M375.866594,226.984729 L401.340992,201.793093 C431.831527,231.924832 481.278397,231.924832 511.75435,201.793093 L537.221457,226.984729 C492.67407,271.00509 420.413981,271.00509 375.866594,226.984729 Z M448.841192,29.8861782 L448.841192,29.669507 L479.462963,29.669507 C496.057047,29.669507 509.47959,16.3875636 509.47959,-5.68434189e-14 L545.518498,-5.68434189e-14 C545.518498,23.6749377 532.774009,44.4031473 513.693729,55.8361633 C524.323858,68.388647 530.805466,85.1012174 530.805466,105.027744 C530.805466,152.218727 494.175995,180.99266 453.638603,180.99266 C412.794992,180.99266 377.353938,152.218727 377.353938,105.634423 C377.353938,60.5379279 410.964977,32.5656785 448.841192,29.8861782 Z" id="logo" fill="#1D1E1F"></path>
    </g>
</svg>